<?xml version="1.0" encoding="UTF-8"?>
<svg width="114px" height="115px" viewBox="0 0 114 115" version="1.1" xmlns="http://www.w3.org/2000/svg" xmlns:xlink="http://www.w3.org/1999/xlink">
    <!-- Generator: Sketch 41 (35326) - http://www.bohemiancoding.com/sketch -->
    <title>Group 5</title>
    <desc>Created with Sketch.</desc>
    <defs></defs>
    <g id="Page-1" stroke="none" stroke-width="1" fill="none" fill-rule="evenodd">
        <g id="编辑首页" transform="translate(-1067.000000, -129.000000)">
            <g id="Group-5" transform="translate(1068.000000, 130.000000)">
                <ellipse id="Oval-Copy-5" stroke="#FFFFFF" stroke-width="2" cx="56" cy="56.5" rx="56" ry="56"></ellipse>
                <g id="时间" transform="translate(30.000000, 31.500000)" fill="#FFFFFF">
                    <path d="M25.5000766,0.0090270499 C11.4231932,0.0090270499 0.00986964775,11.4216357 0.00986964775,25.499234 C0.00986964775,39.5784664 11.4231932,50.9909729 25.5000766,50.9909729 C39.57696,50.9909729 50.9902836,39.5784664 50.9902836,25.499234 C50.9902836,11.4216357 39.57696,0.0090270499 25.5000766,0.0090270499 L25.5000766,0.0090270499 L25.5000766,0.0090270499 Z M25.5000766,47.5869168 C13.2994811,47.5869168 3.40774684,37.6998805 3.40774684,25.499234 C3.40774684,13.3002216 13.2994811,3.4054234 25.5000766,3.4054234 C37.7006721,3.4054234 47.5924064,13.3002727 47.5924064,25.499234 C47.5924064,37.6998295 37.700672,47.5869168 25.5000766,47.5869168 L25.5000766,47.5869168 L25.5000766,47.5869168 Z M36.6519974,27.0923656 L25.5000255,27.0923656 L25.5000255,16.1504248 C25.5248943,15.6665822 25.3677667,15.1353 24.7750532,15.2169532 L23.1103282,15.1446449 C22.6435924,15.1446449 22.3137625,15.4736579 22.3137625,15.9404447 L22.3137625,27.8889314 L22.3137625,29.482114 C22.3137625,29.9488498 22.6435925,30.2793947 23.1103282,30.2793947 L36.6519975,30.2793947 C37.1217972,30.2793947 37.4501463,29.9487987 37.4501463,29.482114 L37.4501463,27.8889314 C37.4501463,27.4151997 37.0175731,27.1981726 36.5477224,27.1981726 L36.6519974,27.0923656 L36.6519974,27.0923656 Z" id="Shape"></path>
                </g>
            </g>
        </g>
    </g>
</svg>