<?xml version="1.0" encoding="UTF-8"?>
<svg width="114px" height="115px" viewBox="0 0 114 115" version="1.1" xmlns="http://www.w3.org/2000/svg" xmlns:xlink="http://www.w3.org/1999/xlink">
    <!-- Generator: Sketch 41 (35326) - http://www.bohemiancoding.com/sketch -->
    <title>Group 9</title>
    <desc>Created with Sketch.</desc>
    <defs></defs>
    <g id="Page-1" stroke="none" stroke-width="1" fill="none" fill-rule="evenodd">
        <g id="编辑首页" transform="translate(-259.000000, -129.000000)">
            <g id="Group-9" transform="translate(260.000000, 130.000000)">
                <ellipse id="Oval-Copy-2" stroke="#FFFFFF" stroke-width="2" cx="56" cy="56.5" rx="56" ry="56"></ellipse>
                <path d="M78.5008095,29.5 L33.5120539,29.5 C31.018675,29.5 29,31.5202731 29,34.0120539 L29,79.000871 C29,81.4941884 31.0197814,83.5128634 33.5120539,83.5128634 L78.5008095,83.5128634 C80.9941884,83.5128634 83.0128634,81.4925289 83.0128634,79.000871 L83.0128634,34.0120539 C83.0128634,31.518675 80.9931435,29.5 78.5008095,29.5 L78.5008095,29.5 Z M71.7602347,39.6274272 C74.2458689,39.6274272 76.2612862,41.6427831 76.2612862,44.1285402 C76.2612862,46.6141743 74.2459304,48.6296531 71.7602347,48.6296531 C69.2745391,48.6296531 67.2591218,46.6142358 67.2591218,44.1285402 C67.2591218,41.6427831 69.2744776,39.6274272 71.7602347,39.6274272 L71.7602347,39.6274272 Z M75.8876328,69.6355639 C75.2282842,70.2942978 74.1646106,70.30026 73.5052005,69.6409729 L64.7866414,60.922967 L59.007522,66.7025782 L63.337144,71.032692 C63.9975376,71.6920406 64.0019631,72.7568821 63.3382505,73.4206563 C62.6789018,74.080005 61.6140603,74.0833241 60.9503476,73.4195499 L45.366929,57.8371762 L39.3285448,63.8761751 C38.671409,64.5333109 37.6087803,64.5360769 36.9450676,63.8723642 C36.2856575,63.2130155 36.2922959,62.1383395 36.9417484,61.4888869 L44.109821,54.3207529 C44.4603631,53.9702108 44.9262773,53.8053583 45.3856147,53.8295759 C45.8328432,53.8163607 46.2856652,53.98066 46.6306753,54.325117 L56.6196805,64.3157203 L63.2393511,57.6965415 C63.6591656,57.2762352 64.2459841,57.1234915 64.7876862,57.2416297 C65.3272371,57.1234915 65.9118427,57.2735307 66.3338086,57.6943901 L75.8919968,67.2536847 C76.5491942,67.9097141 76.551407,68.971175 75.8876328,69.6355639 L75.8876328,69.6355639 Z" id="Shape" fill="#FFFFFF"></path>
            </g>
        </g>
    </g>
</svg>