<?xml version="1.0" encoding="UTF-8"?>
<svg width="114px" height="115px" viewBox="0 0 114 115" version="1.1" xmlns="http://www.w3.org/2000/svg" xmlns:xlink="http://www.w3.org/1999/xlink">
    <!-- Generator: Sketch 41 (35326) - http://www.bohemiancoding.com/sketch -->
    <title>Group 6</title>
    <desc>Created with Sketch.</desc>
    <defs></defs>
    <g id="Page-1" stroke="none" stroke-width="1" fill="none" fill-rule="evenodd">
        <g id="编辑首页" transform="translate(-865.000000, -129.000000)">
            <g id="Group-6" transform="translate(866.000000, 130.000000)">
                <ellipse id="Oval-Copy-4" stroke="#FFFFFF" stroke-width="2" cx="56" cy="56.5" rx="56" ry="56"></ellipse>
                <g id="签约-(1)" transform="translate(29.000000, 38.500000)" fill="#FFFFFF">
                    <path d="M16.2721957,24.4098703 C13.5871707,26.7090242 10.6307517,28.5271459 7.5212653,30.2023829 C7.62456273,30.2667817 7.67656536,30.3041481 7.73270646,30.3335736 C12.6015162,32.8833061 17.5010374,35.3699996 22.5687641,37.5092989 C23.58464,37.9381705 24.6047633,38.3571973 25.6276092,38.7692077 C27.5621624,39.5484649 29.4540788,39.3808868 31.3321097,38.5381012 C34.7238263,37.0160287 37.5220047,34.7229664 39.9822475,31.9787869 C43.3113975,28.2654718 45.9343461,24.121871 47.6548443,19.4287054 C48.3913761,17.4195632 48.9802857,15.3694104 49.2626248,13.2433279 C49.3597146,12.5123154 49.4024602,11.7735794 49.4558786,11.0373998 C49.5025449,10.3946636 49.372511,10.2217552 48.7473901,10.0463992 C46.225942,9.33904672 43.7043307,8.6324013 41.1823381,7.92700687 C36.8399259,6.71240565 32.4972414,5.49900103 28.1546659,4.28499814 C27.4401875,4.0852751 27.3646612,4.12427328 27.3124951,4.85175041 C27.1581752,7.00285263 26.7693261,9.10462236 26.0296359,11.1355752 C25.9387538,11.3850115 25.8584356,11.6409747 25.7398368,11.8771396 C25.5043819,12.345934 25.5536074,12.7583795 25.8366543,13.2055264 C26.7551138,14.65651 27.5013382,16.1974017 28.1210683,17.7981233 C28.7934,19.5348763 29.3286734,21.3132927 29.7133841,23.1359831 C29.7354376,23.2405767 29.741863,23.348488 29.7555308,23.4548221 C29.7284676,23.4766328 29.7014045,23.4984979 29.6742868,23.5203086 C29.6228287,23.4389944 29.5820434,23.3479985 29.5183333,23.2778344 C26.838917,20.3259906 24.0346943,17.5008775 20.962726,14.952396 C18.3868249,12.8154355 15.7143241,10.8164099 12.6764434,9.36265234 C12.1448729,9.10826652 11.5905954,8.90092876 11.0440502,8.67868791 C10.947995,8.6396353 10.8380544,8.63463135 10.7345391,8.61390843 C10.7116144,8.63936332 10.6886897,8.66487263 10.6658194,8.69032751 C10.7474445,8.78192166 10.8157286,8.89184545 10.9127095,8.96233595 C12.2995195,9.96998014 13.7175312,10.93694 15.0740653,11.983528 C17.544273,13.8893276 19.8499237,15.9913693 22.0187883,18.2273212 C25.7040612,22.0265737 29.3220301,25.8909321 32.966082,29.7300532 C33.0872945,29.8577628 33.1984876,29.9997772 33.2898053,30.1500046 C33.5252603,30.537376 33.4638373,30.9519971 33.1385893,31.2805176 C32.8539087,31.5680818 32.425799,31.6206778 32.0529045,31.3928891 C31.9037576,31.3017844 31.7670805,31.1817983 31.6461403,31.054687 C30.9940107,30.3690364 30.3355645,29.6886618 29.7052706,28.9832129 C29.243291,28.4661738 28.7046415,28.0768988 28.0813175,27.7783476 C24.4480473,26.0380592 20.8292071,24.2689981 17.3185651,22.288683 C14.1575661,20.5056434 11.071549,18.6036512 8.15226697,16.4443903 C7.30759139,15.8196031 6.51720553,15.1216058 5.70193457,14.4571676 C5.71364198,14.4248595 5.7252949,14.3925513 5.73700232,14.3602432 C5.86371457,14.3405537 5.99031784,14.3052541 6.11724789,14.3037855 C6.79638622,14.2957357 7.47563342,14.2997062 8.15471731,14.2893176 C8.24734194,14.2879034 8.33904083,14.2293245 8.43122986,14.1971795 C8.37410863,14.1211956 8.3334322,14.0150247 8.25747021,13.9737965 C7.03069768,13.3086512 5.7382003,12.79716 4.37910682,12.4919732 C3.68526616,12.3361979 3.1753679,12.0140955 2.7370754,11.4588197 C1.71128903,10.1590425 0.77458784,8.81613339 0.310212269,7.20366337 C-0.109293959,5.74696864 -0.119640027,4.29103541 0.379422075,2.84636106 C0.421078638,2.72577662 0.470576487,2.60758541 0.522034592,2.49075393 C0.627128962,2.25214146 0.809274371,2.17458014 1.05235275,2.26198617 C1.2001383,2.31512599 1.34667144,2.37680516 1.48470988,2.45132059 C2.68060758,3.09683075 3.87449047,3.74620266 5.06908131,4.39416036 C5.12772725,4.42597898 5.1878434,4.45507807 5.24725167,4.48542815 C5.27638405,4.47221121 5.30551644,4.45899421 5.33464877,4.44577726 C5.28286394,4.29533227 5.26048373,4.12508906 5.17461128,3.99759698 C4.46242022,2.94045718 3.66000022,1.95788714 2.73647665,1.07496113 C2.29704062,0.654792128 2.33597454,0.547968541 2.92488415,0.35961318 C4.07536798,-0.00839506497 5.24888546,-0.0340131255 6.43607067,0.100060237 C7.79276818,0.253279176 9.10606662,0.593004158 10.403737,1.00452505 C11.2281561,1.26592732 11.855564,1.78671929 12.3428643,2.48134437 C13.5307029,4.17458471 14.7162545,5.86989192 15.6579654,7.71885318 C15.683286,7.76862076 15.714052,7.81561444 15.7882715,7.94261699 C15.8674462,6.25176982 15.4722261,4.71153082 15.1333103,3.13501315 C15.1997975,3.16122955 15.2368256,3.16906182 15.2663391,3.18842495 C16.8634468,4.23724294 18.5201261,5.19756715 20.0028824,6.41559498 C21.0651523,7.28824118 21.9704341,8.28903211 22.6482111,9.48867583 C22.6721159,9.53093749 22.6997781,9.57107791 22.7701315,9.68279664 C22.9226,9.19670598 23.0702766,8.77006445 23.1903456,8.33575382 C23.7306831,6.38132877 23.8793399,4.38589309 23.8157388,2.366743 C23.8043581,2.0062951 23.8269017,1.6356217 23.8998687,1.28333243 C24.121057,0.215695209 25.0120721,-0.146493206 25.886479,0.0518700463 C27.0851538,0.323878479 28.2656957,0.677745092 29.4501038,1.01029056 C36.7295497,3.05413409 44.0079609,5.10178494 51.2866443,7.14834805 C51.3623885,7.16966924 51.4380238,7.19164315 51.5130056,7.21557506 C52.4805273,7.52473241 52.8269575,7.96051163 52.8911577,8.96581698 C53.0141671,10.8910341 52.9052065,12.8036326 52.5675977,14.7031773 C51.9163938,18.3676495 50.6051646,21.8062366 48.9605738,25.1257622 C46.5969851,29.8965979 43.4412137,34.0650009 39.4028672,37.5530292 C37.0486445,39.5864297 34.4837429,41.2774401 31.4934541,42.2227524 C30.4654352,42.5477375 29.3967398,42.7711749 28.3303859,42.9358703 C27.8477686,43.0103857 27.3091191,42.8869186 26.8237792,42.7526277 C24.2362252,42.0367358 21.7569782,41.0261001 19.3095318,39.9330624 C13.9638769,37.5456865 8.76056207,34.8752609 3.62613045,32.0678791 C3.28095262,31.8791429 2.93457682,31.6869803 2.61286826,31.4620198 C1.59470532,30.7500441 1.67137519,29.189191 2.76277748,28.5945362 C3.33230186,28.2842366 3.93526035,28.0353443 4.52204633,27.756537 C7.27323174,26.4495258 9.84798936,24.8531011 12.2861787,23.0325862 C12.4045051,22.9442011 12.5259354,22.8594059 12.6502517,22.7796689 C12.8837463,22.6298766 13.1267703,22.6009407 13.3754029,22.743771 C14.3306181,23.2925742 15.2852888,23.842139 16.2721957,24.4098703 Z" id="Shape"></path>
                </g>
            </g>
        </g>
    </g>
</svg>