<?xml version="1.0" encoding="UTF-8"?>
<svg width="114px" height="115px" viewBox="0 0 114 115" version="1.1" xmlns="http://www.w3.org/2000/svg" xmlns:xlink="http://www.w3.org/1999/xlink">
    <!-- Generator: Sketch 41 (35326) - http://www.bohemiancoding.com/sketch -->
    <title>Group 7</title>
    <desc>Created with Sketch.</desc>
    <defs></defs>
    <g id="Page-1" stroke="none" stroke-width="1" fill="none" fill-rule="evenodd">
        <g id="编辑首页" transform="translate(-663.000000, -129.000000)">
            <g id="Group-7" transform="translate(664.000000, 130.000000)">
                <ellipse id="Oval-Copy-3" stroke="#FFFFFF" stroke-width="2" cx="56" cy="56.5" rx="56" ry="56"></ellipse>
                <g id="合作" transform="translate(26.000000, 37.500000)" fill="#FFFFFF">
                    <g id="Group">
                        <path d="M0.734452216,21.3927396 L4.25770123,23.191341 C4.25770123,23.191341 5.86049366,24.1028594 6.70628734,22.3999689 L15.428407,4.29310545 C15.428407,4.29310545 16.2539092,2.74642843 14.9049178,2.01883758 L11.058971,0.156142513 C11.058971,0.156142513 9.86727807,-0.503139128 9.08998784,0.887714808 C9.06576387,1.447304 0.138448397,19.3382322 0.138448397,19.3382322 C0.138448397,19.3382322 -0.429241637,20.805046 0.734452216,21.3927396 L0.734452216,21.3927396 Z" id="Shape"></path>
                        <path d="M58.2695951,23.1617018 L61.8656733,21.5189235 C61.8656733,21.5189235 63.5848666,20.8276341 62.7553533,19.1128773 L53.7835224,1.12990729 C53.7835224,1.12990729 53.0667921,-0.464703307 51.6575554,0.134778475 L47.8117659,1.98529497 C47.8117659,1.98529497 46.5515694,2.50889498 47.1714826,3.97203957 C47.6024803,4.33950416 56.2763093,22.3584634 56.2763093,22.3584634 C56.2763093,22.3584634 57.0855311,23.7054433 58.2695951,23.1617018 L58.2695951,23.1617018 Z" id="Shape"></path>
                        <path d="M9,23.2152986 L10.1877605,20.7171325 L14.3555399,25.941188 C14.3555399,25.941188 17.0658706,25.3254682 18.0161104,27.0082172 C18.0161104,27.0082172 18.9101161,28.0316065 18.5193081,29.9623766 C18.5193081,29.9623766 19.0790546,30.3658304 19.1233341,30.6176767 C19.1233341,30.6176767 20.9878711,30.1700366 22.1113752,31.4849306 C22.1113752,31.4849306 23.1421518,32.3003477 23.0253577,33.8912891 C23.0253577,33.8912891 23.7663907,34.2069168 23.9193634,34.6426906 C23.9193634,34.6426906 25.7516543,34.1911471 26.6414129,35.2541167 C26.6414129,35.2541167 27.7286597,36.2616583 27.6482015,37.4407146 L29.3517436,38.6756673 C29.3517436,38.6756673 30.9382556,38.8076798 31.191978,40.0388072 L32.7180088,41.1579856 C32.7180088,41.1579856 35.1582581,42.1173594 35.2953436,39.6951533 L29.5650402,35.3621624 C29.5650402,35.3621624 28.8925108,33.615632 30.9944898,33.8873076 L39.5357162,39.8588612 C39.5357162,39.8588612 40.9329982,40.4504582 41.7784774,39.1354861 C41.7784774,39.1354861 42.5999685,38.0002258 41.4322635,36.7690983 L32.3476496,30.2538033 C32.3476496,30.2538033 31.5463714,28.4310789 33.6081606,28.5710543 L44.3879798,36.1415122 C44.3879798,36.1415122 45.9182576,36.7449754 46.5624734,35.6139307 C46.5624734,35.6139307 47.4361875,34.4828861 46.5624734,33.3155399 L34.663004,24.6980382 C34.663004,24.6980382 33.9462736,22.6316646 36.1729903,23.167287 L48.4428975,31.8409194 C48.4428975,31.8409194 50.2991764,32.4203377 51.1246786,30.9175347 C51.1246786,30.9175347 52.1755894,29.3027827 50.7664314,27.9718067 L33.4107511,12.9427619 C33.4107511,12.9427619 30.1851108,11.4118545 28.2604857,14.6135665 C28.2604857,14.6135665 27.9222154,19.8298152 22.0831402,20.7809138 C22.0831402,20.7809138 18.1005797,20.4772306 19.0268315,17.8832755 C19.0268315,17.8832755 20.1946151,16.3481525 20.0938655,13.114745 C20.0938655,13.114745 20.2268613,10.796525 21.8456195,8.81766521 L15.5956807,8.81766521 L16.9689747,5.99200526 L26.4078247,5.99200526 C26.4078247,5.99200526 30.2856244,3.80946689 33.2091732,4.01345778 C33.2091732,4.01345778 37.0227165,4.21713639 38.0454709,4.79686704 C38.0454709,4.79686704 43.0949866,6.39967476 45.3582752,6.02401304 L53.8065383,23.4032075 L52.4654904,26.4408213 C52.4654904,26.4408213 54.9380645,28.9631102 53.1137173,32.0208654 C52.6065085,33.0479239 51.3017966,34.0393055 49.1715039,34.1350945 C49.1715039,34.1350945 49.4977409,36.197799 48.0037203,37.3608514 C48.0037203,37.3608514 46.9044402,38.8557695 44.2427147,38.4440405 C44.2427147,38.4440405 44.3956874,40.2667649 42.6319787,41.4776728 C42.6319787,41.4776728 40.5339322,43.2683895 37.2924046,41.0860853 C37.2924046,41.0860853 36.776859,43.1366112 34.1875694,43.556225 C34.1875694,43.556225 32.2990444,43.848042 31.1998429,42.7929572 C31.1998429,42.7929572 29.2225229,46.4902429 26.4077461,44.4077093 C26.4077461,44.4077093 24.6239818,42.9408955 25.8762346,40.8663248 C25.8762346,40.8663248 23.4762537,44.6315293 20.6252196,41.8015757 C20.6252196,41.8015757 19.04264,40.6223632 20.5044144,38.1522235 C20.5044144,38.1522235 18.2414404,40.7105017 15.7486535,38.3922036 C15.7486535,38.3922036 14.0493584,37.013216 15.4063721,34.447053 C15.4063721,34.447053 13.091175,37.1690391 10.3931136,34.5749279 C10.3931136,34.5749279 9.26158729,33.5398284 9.91382527,31.2375342 L12.5234063,27.6960716 L9,23.2152986 L9,23.2152986 Z" id="Shape"></path>
                    </g>
                </g>
            </g>
        </g>
    </g>
</svg>