<?xml version="1.0" encoding="UTF-8"?>
<svg width="114px" height="115px" viewBox="0 0 114 115" version="1.1" xmlns="http://www.w3.org/2000/svg" xmlns:xlink="http://www.w3.org/1999/xlink">
    <!-- Generator: Sketch 41 (35326) - http://www.bohemiancoding.com/sketch -->
    <title>Group 8</title>
    <desc>Created with Sketch.</desc>
    <defs></defs>
    <g id="Page-1" stroke="none" stroke-width="1" fill="none" fill-rule="evenodd">
        <g id="编辑首页" transform="translate(-461.000000, -129.000000)">
            <g id="Group-8" transform="translate(462.000000, 130.000000)">
                <ellipse id="Oval-Copy" stroke="#FFFFFF" stroke-width="2" cx="56" cy="56.5" rx="56" ry="56"></ellipse>
                <g id="1每日更新859e4b" transform="translate(26.000000, 29.500000)" fill="#FFFFFF">
                    <path d="M14.0651907,11.9333334 C18.2793297,8.07514354 23.8941411,5.96666674 29.8333335,5.96666674 C42.9600002,5.96666674 53.7000003,16.7066668 53.7000003,29.8333335 C53.7000003,42.9600002 42.9600002,53.7000003 29.8333335,53.7000003 C16.7066668,53.7000003 5.96666674,42.9600002 5.96666674,29.8333335 C5.96666674,28.0433335 4.77333338,26.8500001 2.98333337,26.8500001 C1.19333336,26.8500001 0,28.0433335 0,29.8333335 C0,46.2416669 13.4250001,59.666667 29.8333335,59.666667 C46.2416669,59.666667 59.666667,46.2416669 59.666667,29.8333335 C59.666667,13.4250001 46.2416669,0 29.8333335,0 C22.0456678,0 14.4446765,3.17346613 8.95000011,8.48674584 L8.95000011,2.98333337 C8.95000011,1.19333336 7.75666675,0 5.96666674,0 C4.17666673,0 2.98333337,1.19333336 2.98333337,2.98333337 L2.98333337,14.9166668 C2.98333337,16.7066668 4.17666673,17.9000001 5.96666674,17.9000001 L17.9000001,17.9000001 C19.6900001,17.9000001 20.8833335,16.7066668 20.8833335,14.9166668 C20.8833335,13.1266668 19.6900002,11.9333334 17.9000002,11.9333334 L14.0651907,11.9333334 Z M28.2643211,32.4409878 C27.3806292,31.9549572 26.8503106,31.02721 26.8500003,29.8343811 C26.8500001,29.8339243 26.8500001,29.8334726 26.8500001,29.8330208 L26.8500001,14.9166668 C26.8500001,13.1266668 28.0433335,11.9333334 29.8333335,11.9333334 C31.6233335,11.9333334 32.8166669,13.1266668 32.8166669,14.9166668 L32.8166669,28.6400003 L40.8716668,36.6950002 C42.0650002,37.8883336 42.0650002,39.6783336 40.8716668,40.8716669 C40.2750002,41.4683336 39.6783335,41.7666669 38.7833335,41.7666669 C37.8883335,41.7666669 37.2916669,41.4683336 36.6950002,40.8716669 L28.2643211,32.4409878 Z" id="Shape"></path>
                </g>
            </g>
        </g>
    </g>
</svg>