<?xml version="1.0" encoding="utf-8"?>
<!-- Generator: Adobe Illustrator 19.0.0, SVG Export Plug-In . SVG Version: 6.00 Build 0)  -->
<svg version="1.1" id="图层_1" xmlns="http://www.w3.org/2000/svg" xmlns:xlink="http://www.w3.org/1999/xlink" x="0px" y="0px"
	 viewBox="0 0 105 72.4" style="enable-background:new 0 0 105 72.4;" xml:space="preserve">
<style type="text/css">
	.st0{fill:#4C4C4C;}
</style>
<polygon class="st0" points="77,21.4 86.1,11.4 105,11.4 105,30.3 89.6,33.5 77,33.5 "/>
<rect x="86.1" y="11.4" class="st0" width="18.9" height="18.9"/>
<polygon class="st0" points="65.2,21.1 65.2,13 61.5,0 51.5,0 51.5,15.2 59.6,21.1 "/>
<rect x="51.5" class="st0" width="10" height="15.2"/>
<polygon class="st0" points="77.7,60.6 75.9,54.1 66.9,54.1 65.9,60.6 65.9,72.4 77.7,72.4 "/>
<rect x="65.9" y="60.6" class="st0" width="11.8" height="11.8"/>
<polygon class="st0" points="55.4,45.5 36.2,50.4 36.2,62.2 48,62.2 60.3,52.5 60.3,45.5 "/>
<rect x="36.2" y="50.4" class="st0" width="11.8" height="11.8"/>
<path class="st0" d="M80.7,46.3l10.7,12.1l7.4-13.1l-15.5-3.4C80.8,41.3,79,44.3,80.7,46.3"/>
<path class="st0" d="M104.6,51c-1.1-4.2-5.3-6.7-9.5-5.6c-4.2,1.1-6.7,5.3-5.7,9.5c1,4.2,5.3,6.7,9.5,5.6
	C103.1,59.4,105.6,55.2,104.6,51"/>
<path class="st0" d="M39.2,25.5v-0.6h-2v0.6h-5.9v1.1v0.1v7.5v0.1v1h5.9v1.2h2v-1.2h4.8c0.6,0,1.2-0.5,1.2-1.2v0v-7.5v-0.1v-1.1
	H39.2z M37.1,34.1h-3.9v-7.5h3.9V34.1z M43,34.1h-3.9v-7.5H43V34.1z"/>
<path class="st0" d="M27.1,28.3h-0.7H19h-0.7c-0.6,0-1.2,0.5-1.2,1.2v4.6H19v-4.6h7.4v4.6h1.9v-4.6C28.3,28.9,27.8,28.3,27.1,28.3"
	/>
<path class="st0" d="M27.8,28.2h0.5h1.4v-1.1v0h0c0-0.6-0.5-1.1-1.1-1.2h-1l0.2-1.2h-2.1l-0.2,1.2h-0.4v0h-1.4v-1.2h-1.9v1.2h-1.5
	h-0.1h-0.3l-0.2-1.2h-2.1l0.2,1.2h-0.2h-0.8c-0.6,0-1.1,0.5-1.1,1.2v1.1h1.4h0.5v-1.1h2.6h0.1h1.5h1.9h1.4v0h0.1v0h2.1l0,0h0.5V28.2
	z"/>
<path class="st0" d="M24.9,35.3v-2.9h-1.6c0.3-1,0.2-1.8,0.2-1.8h-1.8v0.2c0,0,0,0,0,0.1V31h0c0,0.6-0.2,2.1-1.4,3.2
	c-0.8,0.7-1.9,1.1-2.8,1.1l-0.7,0l-0.8,0v1.1c0.8,0.1,3.9,0.2,5.7-1.3c0.7-0.6,1.2-1.3,1.4-2v2.1c0,0.6,0.5,1.2,1.2,1.2h0.2h0.5h4.8
	v-1.2H24.9z"/>
<rect x="0.2" y="29.6" class="st0" width="1.5" height="6.8"/>
<path class="st0" d="M3.2,27.4h-3v1.2h2.3l0,7.8h1.9l0-7.5v-0.3C4.4,27.9,3.8,27.4,3.2,27.4"/>
<path class="st0" d="M12,35.3v-2.8h1.9v-6.4c0-0.6-0.5-1.2-1.2-1.2H7.1H5.2v7.5h1.9v-6.4H12v5.2h-1.8v-3.8H8.4v3.5
	c0,0,0,0.6-0.2,1.1c-0.2,0.5-0.5,1.1-0.5,1.1c-1.1,2.1-3.2,3.3-3.2,3.3h2.7c0,0,2-1.4,2.9-4.3v3.2h0c0,0.6,0.5,1.2,1.2,1.2H12h2.2
	v-1.2H12z"/>
<path class="st0" d="M3.2,24.9h-3v1.5h4.2v-0.3C4.4,25.4,3.8,24.9,3.2,24.9"/>
<polygon class="st0" points="49.2,33.3 49.2,34.5 56.8,34.5 57.9,34.5 57.9,34.5 57.9,32.3 56.8,32.3 56.8,33.3 54.5,33.3 
	54.5,31.2 57.7,31.2 57.7,30 54.5,30 54.5,27.9 57.7,27.9 57.7,26.7 49.4,26.7 49.4,27.9 52.5,27.9 52.5,30 49.4,30 49.4,31.2 
	52.5,31.2 52.5,33.3 "/>
<path class="st0" d="M58.5,24.9h-10h-1.9v1.2v9.2v0.5v0.7h12.7c0.6,0,1.2-0.5,1.2-1.2V24.9H58.5z M58.5,35.3h-10v-9.2h10V35.3z"/>
<path class="st0" d="M60.5,38.9c-0.1-0.2-0.2-0.3-0.4-0.4c-0.1-0.1-0.2-0.1-0.4-0.1c-0.2,0-0.4,0-0.7,0h-1.7V42h0.4
	c0.2,0,0.4-0.2,0.4-0.4v-0.9H59c0.3,0,0.6,0,0.7-0.1c0.2,0,0.3-0.1,0.4-0.2c0.1-0.1,0.3-0.2,0.3-0.4c0.1-0.2,0.1-0.4,0.1-0.6
	C60.6,39.3,60.6,39.1,60.5,38.9 M59.6,39.9C59.5,40,59.3,40,59,40h-1v-1.1H59c0.3,0,0.5,0,0.6,0.1c0.1,0.1,0.2,0.2,0.2,0.4
	C59.7,39.7,59.7,39.8,59.6,39.9"/>
<path class="st0" d="M42.4,38.9h1.3c0.2,0,0.4-0.2,0.4-0.4v-0.2h-1.7c-0.6,0-1,0.2-1.3,0.5c-0.3,0.3-0.4,0.8-0.4,1.5
	c0,0.3,0,0.6,0.1,0.9c0.1,0.2,0.2,0.4,0.4,0.6c0.1,0.1,0.3,0.2,0.5,0.2c0.2,0,0.4,0.1,0.7,0.1h1.3c0.2,0,0.4-0.2,0.4-0.4v-1.4
	c0-0.2-0.1-0.3-0.3-0.4l-1.5,0v0.7h1v0.9h-0.9c-0.3,0-0.5-0.1-0.7-0.3c-0.1-0.2-0.2-0.5-0.2-0.9c0-0.4,0.1-0.8,0.2-0.9
	C41.9,39,42.1,38.9,42.4,38.9"/>
<path class="st0" d="M3.4,38.3c-0.1,0-0.3,0.1-0.3,0.2L2,41l-1-2.6c-0.1-0.1-0.2-0.2-0.3-0.2H0L1.6,42h0.6c0.1,0,0.2-0.1,0.3-0.2
	L4,38.3H3.4z"/>
<path class="st0" d="M11.1,38.3v2.2c0,0.3,0.1,0.6,0.2,0.7c0.1,0.1,0.3,0.2,0.6,0.2c0.3,0,0.5-0.1,0.6-0.2c0.1-0.1,0.2-0.4,0.2-0.7
	v-2.2h0.8v2.2c0,0.3,0,0.5-0.1,0.6c0,0.2-0.1,0.3-0.2,0.4c-0.1,0.2-0.3,0.3-0.6,0.4S12.2,42,11.9,42c-0.3,0-0.6,0-0.8-0.1
	c-0.2-0.1-0.4-0.2-0.6-0.4c-0.1-0.1-0.1-0.2-0.2-0.4c0-0.2,0-0.4,0-0.6v-2.2H11.1z"/>
<path class="st0" d="M15.4,38.3h0.8l1.6,3.7H17l-0.3-0.9H15L14.7,42h-0.8L15.4,38.3z M15.8,39l-0.5,1.4h1.1L15.8,39z"/>
<path class="st0" d="M36.7,38.3h0.8l1.6,3.7h-0.9l-0.3-0.9h-1.6L36,42h-0.8L36.7,38.3z M37.1,39l-0.5,1.4h1.1L37.1,39z"/>
<path class="st0" d="M48.9,40.1c0-0.6,0.2-1.1,0.5-1.4c0.3-0.3,0.8-0.5,1.4-0.5c0.6,0,1.1,0.2,1.4,0.5c0.3,0.3,0.5,0.8,0.5,1.5
	c0,0.7-0.2,1.1-0.5,1.5c-0.3,0.3-0.8,0.5-1.4,0.5c-0.6,0-1.1-0.2-1.4-0.5C49,41.3,48.9,40.8,48.9,40.1 M50.7,38.8
	c-0.3,0-0.6,0.1-0.8,0.3c-0.2,0.2-0.2,0.5-0.2,0.9c0,0.5,0.1,0.8,0.2,1c0.2,0.2,0.4,0.3,0.8,0.3c0.3,0,0.6-0.1,0.8-0.3
	c0.2-0.2,0.2-0.5,0.2-1c0-0.4-0.1-0.8-0.2-1C51.3,38.9,51,38.8,50.7,38.8"/>
<path class="st0" d="M54.1,38.3v2.2c0,0.3,0.1,0.6,0.2,0.7c0.1,0.1,0.3,0.2,0.6,0.2c0.3,0,0.5-0.1,0.6-0.2c0.1-0.1,0.2-0.4,0.2-0.7
	v-2.2h0.8v2.2c0,0.3,0,0.5-0.1,0.6c0,0.2-0.1,0.3-0.2,0.4c-0.1,0.2-0.3,0.3-0.6,0.4C55.5,42,55.3,42,54.9,42c-0.3,0-0.6,0-0.8-0.1
	c-0.2-0.1-0.4-0.2-0.6-0.4c-0.1-0.1-0.1-0.2-0.2-0.4c0-0.2,0-0.4,0-0.6v-2.2H54.1z"/>
<path class="st0" d="M19.9,41.4c-0.2,0-0.3,0-0.4-0.1c-0.1,0-0.2-0.1-0.3-0.2c0-0.1-0.1-0.1-0.1-0.2c0-0.1,0-0.2,0-0.5v-2.2h-0.8
	v2.2c0,0.3,0,0.5,0.1,0.7c0.1,0.2,0.1,0.3,0.3,0.4c0.1,0.1,0.3,0.2,0.5,0.3c0.2,0.1,0.4,0.1,0.8,0.1h0.6c0.2,0,0.4-0.2,0.4-0.4v-0.2
	H19.9z"/>
<path class="st0" d="M24.1,38.9H25c0.2,0,0.4-0.2,0.4-0.4v-0.2h-1.3c-0.6,0-1,0.2-1.3,0.5c-0.3,0.3-0.4,0.8-0.4,1.5
	c0,0.3,0,0.6,0.1,0.9c0.1,0.2,0.2,0.4,0.4,0.6c0.1,0.1,0.3,0.2,0.5,0.3C23.5,42,23.7,42,24,42H25c0.2,0,0.4-0.2,0.4-0.4v-0.2h-1.3
	c-0.3,0-0.6-0.1-0.7-0.2c-0.1-0.2-0.2-0.5-0.2-0.9c0-0.5,0.1-0.8,0.2-1C23.5,39,23.8,38.9,24.1,38.9"/>
<path class="st0" d="M28.4,38.3v1.5h-1.4v-1.5h-0.8V42h0.4c0.2,0,0.4-0.2,0.4-0.4v-1.1h1.4V42h0.4c0.2,0,0.4-0.2,0.4-0.4v-3.3H28.4z
	"/>
<path class="st0" d="M29.9,38.3V42h0.4c0.2,0,0.4-0.2,0.4-0.4v-3.3H29.9z"/>
<path class="st0" d="M47.3,40.4c0.2-0.1,0.4-0.2,0.6-0.3c0.1-0.2,0.2-0.4,0.2-0.7c0-0.4-0.1-0.7-0.3-0.8c-0.2-0.2-0.5-0.3-1-0.3
	h-1.9V42h0.4c0.2,0,0.4-0.2,0.4-0.4v-1h0.9l0.8,1.5h0.9L47.3,40.4z M47.1,39.8c-0.1,0.1-0.3,0.1-0.5,0.1h-1v-0.9h1
	c0.3,0,0.4,0,0.5,0.1c0.1,0.1,0.1,0.2,0.1,0.4C47.3,39.6,47.2,39.7,47.1,39.8"/>
<path class="st0" d="M9.2,40.1c-0.2-0.2-0.5-0.2-0.9-0.2h-1c-0.2,0-0.3,0-0.4-0.1c-0.1-0.1-0.1-0.2-0.1-0.3c0-0.2,0-0.3,0.1-0.4
	C7,39,7.2,38.9,7.4,38.9h1.5c0.2,0,0.4-0.2,0.4-0.4v-0.3h-2c-0.5,0-0.8,0.1-1,0.3C6.1,38.7,6,39,6,39.4c0,0.4,0.1,0.6,0.3,0.8
	c0.2,0.2,0.5,0.3,0.9,0.3h0.9c0.2,0,0.3,0,0.4,0.1c0.1,0.1,0.1,0.2,0.1,0.3c0,0.1,0,0.3-0.1,0.3c-0.1,0.1-0.2,0.1-0.5,0.1h-2V42h2.1
	c0.4,0,0.8-0.1,1-0.3c0.2-0.2,0.3-0.5,0.3-0.8C9.5,40.5,9.4,40.2,9.2,40.1"/>
<path class="st0" d="M4.4,38.3V42h0.4c0.2,0,0.4-0.2,0.4-0.4v-3.3H4.4z"/>
<path class="st0" d="M34,38.3v2.7l-1.5-2.7h-1V42h0.4c0.2,0,0.4-0.2,0.4-0.4v-2.3l0-0.1l0,0v0l0,0l1.6,2.8h0.5
	c0.2,0,0.4-0.2,0.4-0.4v-3.3H34z"/>
</svg>
