<?xml version="1.0" encoding="UTF-8" standalone="no"?>
<svg width="16px" height="17px" viewBox="0 0 16 17" version="1.1" xmlns="http://www.w3.org/2000/svg" xmlns:xlink="http://www.w3.org/1999/xlink">
    <!-- Generator: Sketch 3.6 (26304) - http://www.bohemiancoding.com/sketch -->
    <title>Page 1</title>
    <desc>Created with Sketch.</desc>
    <defs></defs>
    <g id="Page-1" stroke="none" stroke-width="1" fill="none" fill-rule="evenodd">
        <g id="搜索结果" transform="translate(-1418.000000, -246.000000)" fill="#FFFFFF">
            <path d="M1433.85818,249.241146 L1425.38182,257.739583 L1422.58182,257.739583 L1422.58182,254.677083 L1431.05818,246.178646 C1431.18036,246.056146 1431.07855,246 1431.23636,246 C1431.39418,246 1431.54691,246.056146 1431.66909,246.178646 L1433.85818,248.373437 C1433.98036,248.495937 1434.03636,248.649062 1434.03636,248.807292 C1434.03636,248.965521 1433.98036,249.118646 1433.85818,249.241146 L1433.85818,249.241146 Z M1431.49091,247.786458 L1424.10909,255.1875 L1424.10909,256.208333 L1424.87273,256.208333 L1432.25455,248.807292 L1431.49091,247.786458 Z M1425.89091,248.552083 L1419.52727,248.552083 L1419.52727,260.802083 L1431.74545,260.802083 L1431.74545,254.421875 C1431.74545,253.998229 1432.34109,253.65625 1432.76364,253.65625 C1433.18618,253.65625 1433.27273,253.998229 1433.27273,254.421875 L1433.27273,261.3125 C1433.27273,261.873958 1432.81455,262.333333 1432.25455,262.333333 L1419.01818,262.333333 C1418.45818,262.333333 1418,261.873958 1418,261.3125 L1418,248.041667 C1418,247.480208 1418.45818,247.020833 1419.01818,247.020833 L1425.63636,247.020833 C1426.05891,247.020833 1426.4,247.362813 1426.4,247.786458 C1426.4,248.210104 1426.31345,248.552083 1425.89091,248.552083 L1425.89091,248.552083 Z" id="Page-1"></path>
        </g>
    </g>
</svg>