<?xml version="1.0" encoding="UTF-8" standalone="no"?>
<svg width="27px" height="26px" viewBox="0 0 27 26" version="1.1" xmlns="http://www.w3.org/2000/svg" xmlns:xlink="http://www.w3.org/1999/xlink">
    <!-- Generator: Sketch 3.6 (26304) - http://www.bohemiancoding.com/sketch -->
    <title>close copy</title>
    <desc>Created with Sketch.</desc>
    <defs>
        <path id="path-1" d="M0.00610169492,0.0127594937 L24,0.0127594937 L24,23.9114937 L0.00610169492,23.9114937 L0.00610169492,0.0127594937 Z"></path>
    </defs>
    <g id="Welcome" stroke="none" stroke-width="1" fill="none" fill-rule="evenodd">
        <g id="Desktop-HD-2-Copy-4" transform="translate(-1010.000000, -61.000000)">
            <g id="close-copy" transform="translate(1010.000000, 61.000000)">
                <g id="Group-3">
                    <mask id="mask-2" fill="white">
                        <use xlink:href="#path-1"></use>
                    </mask>
                    <g id="Clip-2"></g>
                    <path d="M11.9936949,0.0127594937 C5.38027119,0.0127594937 0,5.37043038 0,11.9558481 C0,18.5412658 5.38027119,23.8988354 11.9936949,23.8988354 C15.1084068,23.8988354 18.06,22.7153418 20.3048136,20.5661772 C20.4990508,20.3802532 20.5054576,20.0725063 20.318339,19.8790886 C20.1316271,19.6856709 19.8225763,19.6792911 19.628339,19.8652152 C17.5661695,21.8394937 14.8549831,22.9265823 11.9936949,22.9265823 C5.91854237,22.9265823 0.976474576,18.0052658 0.976474576,11.9558481 C0.976474576,5.90643038 5.91854237,0.985113924 11.9936949,0.985113924 C18.068339,0.985113924 23.0108136,5.90643038 23.0108136,11.9558481 C23.0108136,13.3202025 22.7625763,14.6512405 22.2728136,15.9118987 C22.1757966,16.1623291 22.3005763,16.4439494 22.5520678,16.5408608 C22.8034576,16.6373671 23.0863729,16.5132152 23.1836949,16.2627848 C23.7167797,14.8898228 23.9872881,13.4404051 23.9872881,11.9558481 C23.9872881,5.37043038 18.6070169,0.0127594937 11.9936949,0.0127594937 L11.9936949,0.0127594937 Z" id="Fill-1" fill="#FFFFFF" mask="url(#mask-2)"></path>
                </g>
                <path d="M26.1838305,25.8411139 C26.2791186,25.9361013 26.4043051,25.9834937 26.5289831,25.9834937 C26.6541695,25.9834937 26.7788475,25.9361013 26.8742373,25.8411139 C27.0649153,25.6512405 27.0649153,25.3434937 26.8742373,25.1536203 L20.1941017,19.4891139 C20.0034237,19.2992405 19.6943729,19.2992405 19.5036949,19.4891139 C19.3130169,19.6789873 19.3130169,19.9867342 19.5036949,20.1766076 L26.1838305,25.8411139 Z" id="Fill-5" fill="#FFFFFF"></path>
            </g>
        </g>
    </g>
</svg>