<?xml version="1.0" encoding="UTF-8" standalone="no"?>
<svg width="36px" height="36px" viewBox="0 0 36 36" version="1.1" xmlns="http://www.w3.org/2000/svg" xmlns:xlink="http://www.w3.org/1999/xlink">
    <!-- Generator: Sketch 3.6 (26304) - http://www.bohemiancoding.com/sketch -->
    <title>返回顶部</title>
    <desc>Created with Sketch.</desc>
    <defs></defs>
    <g id="Page-1" stroke="none" stroke-width="1" fill="none" fill-rule="evenodd">
        <g id="搜索结果" transform="translate(-1369.000000, -688.000000)">
            <g id="返回顶部" transform="translate(1369.000000, 688.000000)">
                <rect id="Rectangle-382-Copy" fill="#F84949" x="0" y="0" width="36" height="36"></rect>
                <g id="Page-1" transform="translate(8.000000, 7.000000)" fill="#FFFFFF">
                    <path d="M19.1422577,19.96875 L0.737226994,19.96875 C0.169374233,19.96875 -0.184736196,19.341375 0.101153374,18.841375 L2.98225767,13.801875 C3.18679755,13.444 3.63747239,13.32275 3.98876074,13.53125 L3.98888344,13.53125 C4.34017178,13.73975 4.45906748,14.198875 4.25452761,14.55675 L2.66262577,17.341375 C2.3767362,17.841375 2.73072393,18.46875 3.29869939,18.46875 L16.7948957,18.46875 C17.3378405,18.46875 17.6940368,17.890375 17.4577178,17.392375 L16.1005399,14.532875 C15.9234847,14.16 16.0768589,13.7115 16.4428712,13.53125 L16.4428712,13.53125 C16.8088834,13.351 17.2490061,13.507125 17.4259387,13.88 L19.8049571,18.892375 C20.0413988,19.390375 19.6852025,19.96875 19.1422577,19.96875" id="Fill-3"></path>
                    <path d="M17.6392025,1.5625 L2.24042945,1.5625 C1.81711656,1.5625 1.47355828,1.2125 1.47355828,0.78125 C1.47355828,0.35 1.81711656,0 2.24042945,0 L17.6392025,0 C18.0632515,0 18.4060736,0.35 18.4060736,0.78125 C18.4060736,1.2125 18.0632515,1.5625 17.6392025,1.5625 M16.7558896,9.148375 L10.546319,2.818 C10.3938037,2.66175 10.1942945,2.58675 9.99576687,2.588375 C9.96889571,2.586 9.94595092,2.57275 9.91907975,2.57275 C9.80705521,2.57275 9.70276074,2.59925 9.60693252,2.643 C9.5103681,2.6805 9.41834356,2.7375 9.34006135,2.81725 L3.12533742,9.1435 C2.82546012,9.448125 2.82472393,9.942625 3.12460123,10.248125 C3.27404908,10.40125 3.4703681,10.477875 3.66754601,10.477875 C3.86386503,10.477875 4.05932515,10.40125 4.2096319,10.24975 L9.15220859,5.2165 L9.15220859,15.979 C9.15220859,16.411 9.49576687,16.76025 9.91907975,16.76025 C10.3423926,16.76025 10.6859509,16.411 10.6859509,15.979 L10.6859509,5.178125 L15.6684049,10.249875 C15.8179755,10.403 16.0158896,10.480375 16.2122086,10.480375 C16.4085276,10.480375 16.6032515,10.404625 16.7528221,10.253125 C17.0541718,9.949125 17.054908,9.453875 16.7558896,9.148375" id="Fill-1"></path>
                </g>
            </g>
        </g>
    </g>
</svg>