<?xml version="1.0" encoding="UTF-8"?>
<svg width="20px" height="20px" viewBox="0 0 20 20" version="1.1" xmlns="http://www.w3.org/2000/svg" xmlns:xlink="http://www.w3.org/1999/xlink">
    <!-- Generator: Sketch 42 (36781) - http://www.bohemiancoding.com/sketch -->
    <title>Group</title>
    <desc>Created with Sketch.</desc>
    <defs></defs>
    <g id="Page-1" stroke="none" stroke-width="1" fill="none" fill-rule="evenodd">
        <g id="侧边" transform="translate(-1413.000000, -606.000000)" fill="#FFFFFF">
            <g id="Group" transform="translate(1413.000000, 606.000000)">
                <path d="M18.6461333,0 L1.0608,0 C0.476133333,0 0.000133333334,0.476 0.000133333334,1.06066667 L0.000133333334,15.312 C0.000133333334,15.9026667 0.480133333,16.3826667 1.0708,16.3826667 L8.2248,16.3826667 L8.2248,15.716 L1.0708,15.716 C0.848133333,15.716 0.6668,15.5346667 0.6668,15.312 L0.6668,1.06066667 C0.6668,0.843333333 0.843466667,0.666666667 1.0608,0.666666667 L18.6461333,0.666666667 C18.8688,0.666666667 19.0501333,0.848 19.0501333,1.07133333 L19.0501333,15.322 C19.0501333,15.5393333 18.8734667,15.716 18.6568,15.716 L13.3854667,15.716 C12.6354667,15.716 11.9408,16.0546667 11.4788,16.6453333 L9.8128,18.7726667 L10.3381333,19.1833333 L12.0034667,17.056 C12.3381333,16.628 12.8421333,16.3826667 13.3854667,16.3826667 L18.6568,16.3826667 C19.2414667,16.3826667 19.7168,15.9066667 19.7168,15.322 L19.7168,1.07133333 C19.7168,0.480666667 19.2368,0 18.6461333,0" id="Fill-1"></path>
                <polygon id="Fill-4" points="3.53133333 6.08026667 16.1853333 6.08026667 16.1853333 5.4136 3.53133333 5.4136"></polygon>
                <polygon id="Fill-6" points="3.53133333 10.7642667 10.1573333 10.7642667 10.1573333 10.0976 3.53133333 10.0976"></polygon>
            </g>
        </g>
    </g>
</svg>