<?xml version="1.0" encoding="UTF-8" standalone="no"?>
<svg width="37px" height="38px" viewBox="0 0 37 38" version="1.1" xmlns="http://www.w3.org/2000/svg" xmlns:xlink="http://www.w3.org/1999/xlink">
    <!-- Generator: Sketch 39.1 (31720) - http://www.bohemiancoding.com/sketch -->
    <title>Fill 1 Copy 4</title>
    <desc>Created with Sketch.</desc>
    <defs></defs>
    <g id="Page-1" stroke="none" stroke-width="1" fill="none" fill-rule="evenodd">
        <g id="编辑首页（已登录）-" transform="translate(-1231.000000, -19.000000)" fill="#3A393A">
            <path d="M1236.34644,24.4827446 C1233.84839,27.0470102 1232.14041,30.2700386 1231.40515,33.8013269 C1230.69044,37.2389955 1230.92449,40.8022515 1232.08218,44.1029157 C1232.22147,44.4990868 1232.64846,44.7045934 1233.03436,44.5618805 C1233.42025,44.4191675 1233.62005,43.9818952 1233.48077,43.5857241 C1232.4167,40.5522185 1232.20092,37.2789551 1232.85854,34.1198621 C1233.53328,30.8774248 1235.10313,27.9181298 1237.39681,25.5616543 C1243.93534,18.8461555 1254.57602,18.8461555 1261.11455,25.5616543 C1264.22912,28.7595652 1265.9725,33.0101265 1266.02388,37.5312716 C1266.06384,41.0191751 1265.08311,44.3643658 1263.24497,47.2151989 C1262.76774,45.9661755 1261.74706,43.643951 1260.10414,41.450739 C1259.40999,40.4757244 1258.5971,39.6034631 1257.68145,38.8487972 C1256.94619,38.2254272 1256.14586,37.668276 1255.25761,37.2435623 C1256.11047,36.0413488 1256.61852,34.5788269 1256.61852,33.0009929 C1256.61852,30.2095284 1255.04297,27.7685667 1252.73787,26.520685 C1251.70349,25.9372746 1250.51726,25.605039 1249.25568,25.605039 C1249.17919,25.605039 1249.10954,25.627873 1249.0399,25.6495654 C1245.0896,25.7648774 1241.89169,29.0244403 1241.89169,33.0009929 C1241.89169,34.5776852 1242.39861,36.0390654 1243.25146,37.2401372 C1243.17497,37.2800969 1243.11788,37.3120645 1243.05966,37.3417488 C1242.97289,37.3885587 1242.88383,37.4353685 1242.79706,37.4844617 C1242.73541,37.5187128 1242.67604,37.5541056 1242.61553,37.5894984 C1242.53447,37.63745 1242.45227,37.6831181 1242.37235,37.7322114 C1242.3107,37.7710293 1242.24905,37.8098472 1242.18854,37.8475234 C1242.1109,37.8977583 1242.03441,37.9457099 1241.95905,37.9948031 C1241.8974,38.0359044 1241.83575,38.0781475 1241.77524,38.1203905 C1241.70217,38.1706254 1241.6291,38.2208604 1241.55603,38.272237 C1241.49552,38.3156217 1241.43501,38.3601482 1241.37564,38.4046746 C1241.30486,38.4571929 1241.23407,38.5097113 1241.16443,38.5633714 C1241.10506,38.6090395 1241.04683,38.6558493 1240.98746,38.7015175 C1240.91896,38.7563192 1240.8516,38.811121 1240.78538,38.8659227 C1240.72716,38.915016 1240.67007,38.9629675 1240.61184,39.0120607 C1240.54677,39.0691459 1240.48169,39.1262311 1240.41661,39.1833162 C1240.36067,39.2335512 1240.30473,39.2837861 1240.24992,39.3351628 C1240.18599,39.3933896 1240.12319,39.4538999 1240.0604,39.5132685 C1240.00674,39.5646451 1239.95194,39.6171635 1239.89942,39.6696818 C1239.83777,39.7313338 1239.77612,39.7941275 1239.71561,39.8557795 C1239.66423,39.9094395 1239.61285,39.9630996 1239.56148,40.0167596 C1239.50211,40.080695 1239.44274,40.1446304 1239.38451,40.2097075 C1239.33428,40.2645093 1239.28518,40.319311 1239.23723,40.3741128 C1239.17786,40.4414733 1239.12078,40.5099755 1239.06369,40.5784777 C1239.01688,40.6332794 1238.97007,40.6880812 1238.92555,40.7428829 C1238.86732,40.8148102 1238.81024,40.8878793 1238.75429,40.9609483 C1238.71205,41.0146083 1238.66752,41.0682684 1238.62642,41.1230701 C1238.56705,41.2018477 1238.50997,41.2817669 1238.45174,41.3628278 C1238.41521,41.4130628 1238.37753,41.462156 1238.34214,41.5135327 C1238.26907,41.6174277 1238.19714,41.7224644 1238.1275,41.8297845 C1237.98364,42.0467081 1237.89802,42.1837125 1237.81581,42.3207169 C1237.78727,42.3675267 1237.75987,42.4154783 1237.73133,42.4634298 C1237.67767,42.5547661 1237.62401,42.6461023 1237.57263,42.739722 C1237.54066,42.7968072 1237.50984,42.8561757 1237.47901,42.9144026 C1237.43334,42.9988886 1237.38882,43.082233 1237.34543,43.1678607 C1237.31232,43.2306544 1237.2815,43.2945898 1237.25067,43.3573835 C1237.21071,43.4395861 1237.16961,43.5206471 1237.13193,43.6039914 C1237.10111,43.6702102 1237.07142,43.736429 1237.04174,43.8026478 C1237.00406,43.8837087 1236.96753,43.9659113 1236.93213,44.048114 C1236.90359,44.1166162 1236.87619,44.1851184 1236.84765,44.2536206 C1236.81454,44.3358232 1236.78143,44.4180258 1236.74946,44.5013702 C1236.72206,44.5710141 1236.69694,44.640658 1236.67068,44.7114436 C1236.641,44.7947879 1236.61017,44.8781323 1236.58163,44.9614766 C1236.55651,45.0322622 1236.53254,45.1041895 1236.5097,45.1761168 C1236.4823,45.2594612 1236.4549,45.3439472 1236.42864,45.4284333 C1236.40695,45.5015023 1236.38526,45.5734296 1236.36357,45.6453569 C1236.33959,45.7309846 1236.31561,45.8166124 1236.29278,45.9033818 C1236.27223,45.9764508 1236.25396,46.0483781 1236.2357,46.1225889 C1236.214,46.2093583 1236.19231,46.2961278 1236.1729,46.3851806 C1236.15578,46.4582496 1236.13865,46.5301769 1236.12267,46.6043876 C1236.10326,46.6934405 1236.08613,46.7824934 1236.06786,46.8726879 C1236.05416,46.9457569 1236.04046,47.0188259 1236.02676,47.0930367 C1236.01078,47.1843729 1235.99594,47.2757092 1235.9811,47.3681871 C1235.96968,47.4401145 1235.95712,47.5120418 1235.94799,47.5851108 C1235.93429,47.6798721 1235.92287,47.7746335 1235.91145,47.8705366 C1235.90232,47.9413222 1235.89318,48.0121078 1235.88519,48.0828934 C1235.87492,48.1833633 1235.86692,48.2838332 1235.85893,48.3843031 C1235.85208,48.4516636 1235.84637,48.5178824 1235.84067,48.5852429 C1235.83267,48.6982715 1235.82811,48.8101584 1235.8224,48.923187 C1235.82012,48.9802722 1235.81669,49.035074 1235.81441,49.0921591 C1235.80756,49.2611312 1235.80527,49.4301033 1235.80527,49.6013588 C1235.80527,49.7863147 1235.81098,49.9598536 1235.81783,50.1528015 C1235.82012,50.1973279 1235.82582,50.2407126 1235.83382,50.2829557 C1235.84523,50.3343323 1235.85893,50.3742919 1235.87378,50.4119681 C1235.89433,50.4622031 1235.91373,50.4987376 1235.93429,50.5329887 C1235.96511,50.5797985 1235.99023,50.6117662 1236.01649,50.6414505 C1236.01877,50.6437339 1236.11924,50.7556208 1236.11924,50.7556208 C1236.19459,50.8366818 1236.26766,50.9188844 1236.3453,50.9976619 C1239.90513,54.6522542 1244.5804,56.4801211 1249.25568,56.4801211 C1253.93095,56.4801211 1258.60623,54.6522542 1262.16492,50.9976619 C1262.24255,50.9188844 1262.31677,50.8366818 1262.39098,50.7556208 L1262.48916,50.6483007 C1265.78183,47.091895 1267.56518,42.4268953 1267.50923,37.514146 C1267.45329,32.5922631 1265.55578,27.963798 1262.16606,24.4827446 C1255.04754,17.1724185 1243.46496,17.1724185 1236.34644,24.4827446 Z" id="Fill-1-Copy-4"></path>
        </g>
    </g>
</svg>