<?xml version="1.0" encoding="UTF-8"?>
<svg width="26px" height="21px" viewBox="0 0 26 21" version="1.1" xmlns="http://www.w3.org/2000/svg" xmlns:xlink="http://www.w3.org/1999/xlink">
    <!-- Generator: Sketch 40.1 (33804) - http://www.bohemiancoding.com/sketch -->
    <title>相机</title>
    <desc>Created with Sketch.</desc>
    <defs></defs>
    <g id="Page-1" stroke="none" stroke-width="1" fill="none" fill-rule="evenodd">
        <g id="搜索默认状态" transform="translate(-1047.000000, -109.000000)" fill="#4A4A4A">
            <g id="相机" transform="translate(1047.000000, 109.000000)">
                <g id="Group" transform="translate(0.076800, 0.055350)">
                    <path d="M24.9677748,16.7138843 L24.9677748,6.25061164 C24.9677748,4.43722278 23.4999819,2.96968059 21.6917656,2.96968059 L3.29457492,2.96968059 C1.48635864,2.96968059 0.0185657417,4.43722278 0.0185657417,6.25061164 L0.0185657417,16.7138843 C0.0185657417,18.5273814 1.48646858,19.9955522 3.29457492,19.9955522 L21.6917656,19.9955522 C23.4998712,19.9955522 24.9677748,18.5273814 24.9677748,16.7138843 L24.9677748,16.7138843 Z M24.1882049,16.7138843 C24.1882049,18.0888704 23.0715615,19.2057171 21.6917656,19.2057171 L3.29457492,19.2057171 C1.9147783,19.2057171 0.798135646,18.0888704 0.798135646,16.7138843 L0.798135646,6.25061164 C0.798135646,4.87579691 1.91460758,3.75951577 3.29457492,3.75951577 L21.6917656,3.75951577 C23.071733,3.75951577 24.1882049,4.87579691 24.1882049,6.25061164 L24.1882049,16.7138843 L24.1882049,16.7138843 Z M12.580944,14.8299434 C14.6294619,14.8299434 16.2921371,13.1669652 16.2921371,11.1130123 C16.2921371,9.05905934 14.6294619,7.39608115 12.580944,7.39608115 C10.5324269,7.39608115 8.86975163,9.05905934 8.86975163,11.1130123 C8.86975163,13.1669652 10.5324269,14.8299434 12.580944,14.8299434 L12.580944,14.8299434 Z M12.580944,14.0401082 C10.9607366,14.0401082 9.64932153,12.7284542 9.64932153,11.1130123 C9.64932153,9.4975703 10.9607366,8.18591631 12.580944,8.18591631 C14.2011522,8.18591631 15.5125673,9.4975703 15.5125673,11.1130123 C15.5125673,12.7284542 14.2011522,14.0401082 12.580944,14.0401082 L12.580944,14.0401082 Z M5.9613276,1.51731354 C5.9613276,1.12734664 6.27973981,0.8085826 6.67499032,0.8085826 L8.61708835,0.8085826 C9.0118953,0.8085826 9.33075107,1.12764282 9.33075107,1.51731354 L10.110321,1.51731354 C10.110321,0.68921481 9.44028455,0.0187474226 8.61708835,0.0187474226 L6.67499032,0.0187474226 C5.85127105,0.0187474226 5.18175772,0.689001551 5.18175772,1.51731354 L5.9613276,1.51731354 L5.9613276,1.51731354 Z" id="Shape"></path>
                </g>
            </g>
        </g>
    </g>
</svg>