<?xml version="1.0" encoding="UTF-8"?>
<svg width="14px" height="14px" viewBox="0 0 14 14" version="1.1" xmlns="http://www.w3.org/2000/svg" xmlns:xlink="http://www.w3.org/1999/xlink">
    <!-- Generator: Sketch 40.1 (33804) - http://www.bohemiancoding.com/sketch -->
    <title>Shape</title>
    <desc>Created with Sketch.</desc>
    <defs></defs>
    <g id="Page-1" stroke="none" stroke-width="1" fill="none" fill-rule="evenodd">
        <g id="搜索点击以图搜图" transform="translate(-237.000000, -176.000000)" fill="#9B9B9B">
            <path d="M243.662566,176.043703 C240.007064,176.043703 237.043703,179.007064 237.043703,182.662566 C237.043703,186.318068 240.007064,189.28143 243.662566,189.28143 C247.318068,189.28143 250.28143,186.318068 250.28143,182.662566 C250.28143,179.007064 247.318068,176.043703 243.662566,176.043703 L243.662566,176.043703 Z M247.874501,186.874501 C247.327252,187.42175 246.69016,187.851341 245.980926,188.151319 C245.246994,188.461741 244.466977,188.619141 243.662566,188.619141 C242.858156,188.619141 242.078139,188.461741 241.344207,188.151319 C240.634973,187.851355 239.997895,187.42175 239.450632,186.874501 C238.903369,186.327252 238.473792,185.69016 238.173814,184.980926 C237.863406,184.246994 237.706006,183.466991 237.706006,182.662566 C237.706006,181.858142 237.863406,181.078139 238.173828,180.344207 C238.473792,179.634973 238.903396,178.997908 239.450646,178.450632 C239.997895,177.903355 240.634987,177.473792 241.344221,177.173814 C242.078139,176.863406 242.858156,176.706006 243.662566,176.706006 C244.466977,176.706006 245.246994,176.863406 245.980926,177.173828 C246.69016,177.473792 247.327225,177.903396 247.874501,178.450646 C248.421778,178.997895 248.851341,179.634987 249.151319,180.344221 C249.461741,181.078153 249.619141,181.85817 249.619141,182.66258 C249.619141,183.466991 249.461741,184.247008 249.151319,184.98094 C248.851341,185.69016 248.42175,186.327252 247.874501,186.874501 L247.874501,186.874501 Z M243.10425,185.279338 L243.964123,185.279338 L243.964123,186.204136 L243.10425,186.204136 L243.10425,185.279338 L243.10425,185.279338 Z M245.13845,179.909533 C244.742645,179.547775 244.212378,179.366897 243.547637,179.366897 C242.919922,179.366897 242.415185,179.535461 242.033355,179.872437 C241.651457,180.209483 241.421875,180.694938 241.344623,181.328748 L242.20264,181.430782 C242.276845,180.957724 242.432943,180.609874 242.671072,180.387245 C242.909117,180.164617 243.205951,180.053316 243.561544,180.053316 C243.929466,180.053316 244.240193,180.176225 244.493767,180.422027 C244.747257,180.667844 244.874072,180.95307 244.874072,181.277732 C244.874072,181.457101 244.830743,181.622534 244.74421,181.773992 C244.657621,181.925518 244.469775,182.128782 244.180699,182.383879 C243.891553,182.638963 243.691392,182.833029 243.580092,182.965952 C243.428565,183.148424 243.318775,183.329289 243.250803,183.508574 C243.158037,183.746703 243.111674,184.029615 243.111674,184.357311 C243.111674,184.412954 243.113198,184.509433 243.116315,184.620734 L243.918661,184.620734 C243.924825,184.286805 243.948027,184.032649 243.988226,183.884239 C244.028383,183.735816 244.090259,183.604444 244.173745,183.490013 C244.257217,183.375651 244.434979,183.19782 244.707101,182.956657 C245.112118,182.598016 245.384239,182.29344 245.523354,182.042983 C245.662497,181.792525 245.732062,181.518894 245.732062,181.222074 C245.732103,180.708846 245.5342,180.27129 245.13845,179.909533 L245.13845,179.909533 Z" id="Shape"></path>
        </g>
    </g>
</svg>