<?xml version="1.0" encoding="utf-8"?>
<!-- Generator: Adobe Illustrator 20.0.0, SVG Export Plug-In . SVG Version: 6.00 Build 0)  -->
<svg version="1.1" id="图层_1" xmlns="http://www.w3.org/2000/svg" xmlns:xlink="http://www.w3.org/1999/xlink" x="0px" y="0px"
	 viewBox="0 0 26 21" style="enable-background:new 0 0 26 21;" xml:space="preserve">
<style type="text/css">
	.st0{fill:#FFFFFF;}
</style>
<title>相机</title>
<desc>Created with Sketch.</desc>
<g id="Page-1">
	<g id="搜索默认状态" transform="translate(-1047.000000, -109.000000)">
		<g id="相机" transform="translate(1047.000000, 109.000000)">
			<g id="Group" transform="translate(0.076800, 0.055350)">
				<path id="Shape" class="st0" d="M25,16.7V6.3C25,4.4,23.5,3,21.7,3H3.3C1.5,3,0,4.4,0,6.3v10.5C0,18.5,1.5,20,3.3,20h18.4
					C23.5,20,25,18.5,25,16.7L25,16.7z M24.2,16.7c0,1.4-1.1,2.5-2.5,2.5H3.3c-1.4,0-2.5-1.1-2.5-2.5V6.3c0-1.4,1.1-2.5,2.5-2.5
					h18.4c1.4,0,2.5,1.1,2.5,2.5V16.7L24.2,16.7z M12.6,14.8c2,0,3.7-1.7,3.7-3.7s-1.7-3.7-3.7-3.7s-3.7,1.7-3.7,3.7
					S10.5,14.8,12.6,14.8L12.6,14.8z M12.6,14c-1.6,0-2.9-1.3-2.9-2.9s1.3-2.9,2.9-2.9s2.9,1.3,2.9,2.9S14.2,14,12.6,14L12.6,14z
					 M6,1.5c0-0.4,0.3-0.7,0.7-0.7h1.9c0.4,0,0.7,0.3,0.7,0.7h0.8C10.1,0.7,9.4,0,8.6,0H6.7C5.9,0,5.2,0.7,5.2,1.5H6L6,1.5z"/>
			</g>
		</g>
	</g>
</g>
</svg>
